<?xml version="1.0" standalone="no"?>
<!DOCTYPE svg PUBLIC "-//W3C//DTD SVG 20010904//EN"
 "http://www.w3.org/TR/2001/REC-SVG-20010904/DTD/svg10.dtd">
<svg version="1.0" xmlns="http://www.w3.org/2000/svg"
 width="700.000000pt" height="700.000000pt" viewBox="0 0 700.000000 700.000000"
 preserveAspectRatio="xMidYMid meet">
<metadata>
Created by potrace 1.11, written by Peter Selinger 2001-2013
</metadata>
<g transform="translate(0.000000,700.000000) scale(0.100000,-0.100000)"
fill="#000000" stroke="none">
<path d="M436 6988 c-67 -12 -170 -61 -225 -105 -70 -57 -107 -101 -146 -174
-70 -133 -65 132 -62 -3239 l2 -3045 24 -60 c33 -84 83 -159 144 -217 60 -57
187 -124 266 -138 35 -7 1114 -10 3070 -10 2609 0 3023 2 3071 15 185 49 312
161 386 340 l29 70 2 3045 c2 3348 7 3103 -58 3231 -72 143 -209 251 -363 284
-50 11 -611 13 -3076 13 -1822 0 -3034 -4 -3064 -10z"/>
</g>
</svg>
