<svg version="1" xmlns="http://www.w3.org/2000/svg" width="933.333" height="933.333" viewBox="0 0 700.000000 700.000000"><path d="M112.8 58.5c-.2.2-3 .5-6.3.9-7.3.8-22.2 7.8-28 13.3-8.8 8.2-14.5 17.1-18 28.3-1.7 5.2-1.8 17-2.1 188-.2 154.4 0 183.6 1.2 189.5 3.5 17.3 15.4 32.6 31.4 40.3 4.7 2.2 10.9 4.5 13.8 5.1 7.1 1.5 483.6 1.5 490.2.1 22.6-5.1 40.8-23.1 45.4-45 1.1-5.4 1.3-38.6 1.1-189.5-.2-166.8-.4-183.5-1.9-188.1-7-21.8-21.5-35.9-42.5-41.2-7-1.8-16.9-1.9-245.7-1.9-131.1 0-238.5.1-238.6.2zm469.8 58.7c.9.6 1.2 289.3.2 290.3-.6.7-465 .7-465.6 0-.3-.3-.6-65.6-.6-145.1-.1-110 .2-144.7 1.1-145.2 1.4-.9 463.5-.8 464.9 0z"/><path d="M345.3 137.6c-4.3 1.2-13.9 4.4-21.3 7.2-13.9 5.2-40.9 15.6-44.5 17.1-1.1.5-4.5 1.8-7.5 2.9-3 1.2-11.8 4.5-19.5 7.5-7.7 3-20.1 7.9-27.5 10.7-17.1 6.7-22.6 9.4-24.4 12.3-1.1 1.6-1.5 6-1.5 17.6-.1 18 .1 18.5 8.6 23.3l5.6 3.1-4.4 1.7c-2.4 1-5.6 2.8-7.1 4.2l-2.6 2.4V264c0 10.4.5 17.1 1.2 18.3.6 1 3.3 3 6 4.4l5 2.5-4 1.9c-7.9 3.8-8.2 4.7-8.2 22.8 0 14.4.2 16.3 1.9 18.5 2.8 3.5 12.5 8 70.3 32.1 28.1 11.7 54.7 22.9 59.2 24.9 15.3 6.7 24 6.3 41.2-2 5.3-2.5 18.9-8.6 30.2-13.6 11.3-4.9 21.9-9.5 23.5-10.2 1.7-.8 12.7-5.5 24.5-10.5 32.3-13.8 49.5-22.5 51.1-26 2-3.9 1.9-33.2-.1-35.6-.8-.9-3.4-2.7-5.8-3.9l-4.5-2.3 5.1-3.1c3.5-2.1 5.4-4 5.8-5.9.4-1.6.7-9.7.7-18.2 0-17.4.3-16.8-9.3-21.2l-4.4-2 4.9-2.8c8.9-5.1 8.8-4.9 8.9-23.4.1-16 .1-16.2-2.4-18.8-2.4-2.5-9.4-5.6-29-13-4.7-1.7-9.8-3.7-11.5-4.5-1.6-.7-9.1-3.6-16.5-6.5s-17.8-6.9-23-8.9c-60.9-23.7-60-23.5-74.7-19.4zM252.4 556.1c-7 2.6-12.8 7.9-16 14.5-2.4 5-2.8 6.9-3 17.3-.1 6.4-.3 11.9-.3 12.2-.1.3-4.7 5.2-10.3 11-5.6 5.7-11.4 12.2-13 14.3-10.2 14-4.5 34.7 11.8 42.7l4.9 2.4h247l5.7-2.8c10.6-5.2 16.2-14.3 16.1-26.2 0-10.4-2.5-14.7-16.6-29l-11.9-12-.2-12c-.2-10.9-.5-12.5-3-17.8-3.4-6.8-9-11.9-16-14.6-4.9-1.9-8.4-2-97.6-2-89.2 0-92.7.1-97.6 2z"/></svg>