<svg width="418" height="418" viewBox="0 0 418 418" fill="none" xmlns="http://www.w3.org/2000/svg">
    <path d="M69.6667 34.8333H348.333C357.572 34.8333 366.432 38.5033 372.964 45.0358C379.497 51.5683 383.167 60.4283 383.167 69.6667V278.667C383.167 287.905 379.497 296.765 372.964 303.298C366.432 309.83 357.572 313.5 348.333 313.5H69.6667C60.4283 313.5 51.5683 309.83 45.0358 303.298C38.5033 296.765 34.8333 287.905 34.8333 278.667V69.6667C34.8333 50.5083 50.5083 34.8333 69.6667 34.8333ZM69.6667 69.6667V243.833H348.333V69.6667H69.6667ZM139.333 348.333C139.333 343.714 141.168 339.284 144.435 336.018C147.701 332.752 152.131 330.917 156.75 330.917H261.25C265.869 330.917 270.299 332.752 273.565 336.018C276.832 339.284 278.667 343.714 278.667 348.333V358.609L290.858 370.801C293.304 373.226 294.976 376.323 295.662 379.698C296.347 383.074 296.017 386.577 294.712 389.765C293.407 392.953 291.186 395.682 288.33 397.608C285.474 399.533 282.111 400.569 278.667 400.583H139.333C135.924 400.535 132.605 399.488 129.785 397.571C126.966 395.654 124.771 392.952 123.473 389.8C122.175 386.647 121.831 383.183 122.483 379.837C123.135 376.491 124.755 373.409 127.142 370.975L139.333 358.609V348.333Z" fill="#C6302B"/>
    <path d="M34.8333 243.833H383.167V278.667C383.167 287.905 379.497 296.765 372.964 303.298C366.432 309.83 357.572 313.5 348.333 313.5H69.6667C60.4283 313.5 51.5683 309.83 45.0358 303.298C38.5033 296.765 34.8333 287.905 34.8333 278.667V243.833Z" fill="#C6302B"/>
    <path d="M292.903 200.016C283.237 205.072 233.217 225.596 222.559 231.148C211.9 236.7 206.001 236.651 197.574 232.635C189.146 228.62 135.905 207.105 126.337 202.544C121.528 200.264 119 198.33 119 196.496V178.204C119 178.204 188.304 163.133 199.507 159.118C210.711 155.103 214.577 154.954 224.096 158.424C233.614 161.894 290.524 172.205 299.943 175.626C299.943 175.626 299.943 191.985 299.943 193.671C299.992 195.455 297.811 197.438 292.903 200.016Z" fill="#912626"/>
    <path d="M292.903 181.823C283.237 186.829 233.217 207.402 222.559 212.955C211.9 218.507 206.001 218.457 197.574 214.442C189.146 210.426 135.954 188.912 126.337 184.351C116.769 179.79 116.571 176.617 125.99 172.949C135.409 169.28 188.353 148.509 199.557 144.494C210.76 140.478 214.627 140.33 224.145 143.8C233.663 147.27 283.385 167.099 292.804 170.52C302.174 173.99 302.57 176.816 292.903 181.823Z" fill="#C6302B"/>
    <path d="M292.903 170.421C283.237 175.477 233.217 196.001 222.559 201.553C211.9 207.105 206.001 207.055 197.574 203.04C189.146 199.025 135.905 177.51 126.337 172.949C121.528 170.669 119 168.735 119 166.901V148.608C119 148.608 188.304 133.538 199.507 129.523C210.711 125.507 214.577 125.358 224.096 128.829C233.614 132.299 290.524 142.61 299.943 146.031C299.943 146.031 299.943 162.39 299.943 164.075C299.992 165.91 297.811 167.892 292.903 170.421Z" fill="#912626"/>
    <path d="M292.903 152.227C283.237 157.284 233.217 177.807 222.559 183.359C211.9 188.912 206.001 188.862 197.574 184.847C189.146 180.831 135.954 159.316 126.337 154.755C116.769 150.195 116.571 147.022 125.99 143.304C135.409 139.636 188.353 118.864 199.557 114.849C210.76 110.833 214.627 110.685 224.145 114.155C233.663 117.625 283.385 137.454 292.804 140.875C302.174 144.395 302.57 147.22 292.903 152.227Z" fill="#C6302B"/>
    <path d="M292.903 139.735C283.237 144.791 233.217 165.315 222.559 170.867C211.9 176.419 206.001 176.369 197.574 172.354C189.146 168.339 135.905 146.824 126.337 142.263C121.528 139.983 119 138.049 119 136.215V117.922C119 117.922 188.304 102.852 199.507 98.8367C210.711 94.8213 214.577 94.6726 224.096 98.1427C233.614 101.613 290.524 111.924 299.943 115.345C299.943 115.345 299.943 131.704 299.943 133.389C299.992 135.174 297.811 137.157 292.903 139.735Z" fill="#912626"/>
    <path d="M292.903 121.541C283.236 126.598 233.217 147.121 222.559 152.673C211.9 158.226 206.001 158.176 197.574 154.161C189.146 150.145 135.954 128.68 126.386 124.07C116.819 119.509 116.62 116.336 126.039 112.618C135.458 108.95 188.403 88.1785 199.606 84.163C210.81 80.1476 214.677 79.9988 224.195 83.469C233.713 86.9391 283.435 106.768 292.854 110.189C302.174 113.659 302.57 116.534 292.903 121.541Z" fill="#C6302B"/>
    <path d="M231.631 103.744L216.065 105.38L212.595 113.758L206.943 104.389L188.998 102.803L202.432 97.9444L198.367 90.558L210.959 95.4657L222.757 91.599L219.584 99.2333L231.631 103.744Z" fill="white"/>
    <path d="M211.653 144.444L182.652 132.398L224.244 126.003L211.653 144.444Z" fill="white"/>
    <path d="M171.399 108.404C183.693 108.404 193.658 112.271 193.658 117.03C193.658 121.789 183.693 125.656 171.399 125.656C159.105 125.656 149.141 121.789 149.141 117.03C149.19 112.271 159.154 108.404 171.399 108.404Z" fill="white"/>
    <path d="M250.022 106.074L274.66 115.791L250.022 125.507V106.074Z" fill="#621B1C"/>
    <path d="M222.757 116.832L250.022 106.074V125.507L247.345 126.548L222.757 116.832Z" fill="#9A2928"/>
</svg>
